<svg width="197" height="32" viewBox="0 0 197 32" fill="none" xmlns="http://www.w3.org/2000/svg">
<path d="M15.4 18.52C14.08 19.76 12.24 20.4 9.88 20.4C6.32 20.4 3.88 18.36 3.6 15H17.44C17.56 14.4 17.64 13.68 17.64 12.84C17.64 10.4 16.84 8.44 15.24 6.92C13.64 5.36 11.64 4.6 9.28 4.6C6.4 4.6 4.12 5.48 2.48 7.28C0.84 9.04 0 11.28 0 14C0 16.84 0.88 19.12 2.64 20.84C4.4 22.56 6.72 23.4 9.64 23.4C12.4 23.4 14.68 22.6 16.4 21.04L15.4 18.52ZM9.12 7.6C12.2 7.6 14.16 9.4 14.32 12.4H3.4C3.76 9.56 5.92 7.6 9.12 7.6Z" fill="#19BE2A"/>
<path d="M23.5812 23V10C24.9412 8.44 26.6213 7.68 28.6612 7.68C32.0612 7.68 33.7412 9.52 33.7412 13.2V23H36.9412V12.6C36.9412 7.32 34.4613 4.68 29.4613 4.68C27.2213 4.68 24.9012 5.76 23.5812 7.2V5H20.3813V23H23.5812Z" fill="#19BE2A"/>
<path d="M40.3344 16.16C40.3344 20.92 42.0144 23.32 45.9744 23.32C47.8144 23.32 49.3344 22.8 50.5744 21.8L49.5744 19.32C48.6944 20 47.7344 20.32 46.7344 20.32C44.6144 20.32 43.5344 18.84 43.5344 15.84V8H50.1344V5H43.5344V0H40.3344V16.16Z" fill="#19BE2A"/>
<path d="M66.7328 18.52C65.4128 19.76 63.5728 20.4 61.2128 20.4C57.6528 20.4 55.2128 18.36 54.9328 15H68.7728C68.8928 14.4 68.9728 13.68 68.9728 12.84C68.9728 10.4 68.1728 8.44 66.5728 6.92C64.9728 5.36 62.9728 4.6 60.6128 4.6C57.7328 4.6 55.4528 5.48 53.8128 7.28C52.1728 9.04 51.3328 11.28 51.3328 14C51.3328 16.84 52.2128 19.12 53.9728 20.84C55.7328 22.56 58.0528 23.4 60.9728 23.4C63.7328 23.4 66.0128 22.6 67.7328 21.04L66.7328 18.52ZM60.4528 7.6C63.5328 7.6 65.4928 9.4 65.6528 12.4H54.7328C55.0928 9.56 57.2528 7.6 60.4528 7.6Z" fill="#19BE2A"/>
<path d="M74.9141 23V10.24C75.7941 8.52 77.0341 7.68 78.6741 7.68C79.5141 7.68 80.3541 7.92 81.1141 8.36L82.2341 5.36C81.6341 4.92 80.6741 4.68 79.4341 4.68C77.5141 4.68 75.9941 5.48 74.9141 7.12V5H71.7141V23H74.9141Z" fill="#19BE2A"/>
<path d="M89.1599 8.79998C90.8399 7.91998 92.4799 7.47998 94.1199 7.47998C97.4399 7.47998 98.1999 9.31998 98.1999 13.16C97.1199 12.4 95.6399 12 93.7199 12C89.7199 12 86.9199 14.16 86.9199 17.72C86.9199 21.12 89.1199 23.28 92.4399 23.28C94.8799 23.28 96.7999 22.4 98.1999 20.68V23H101.24V11.96C101.24 7.03998 99.2799 4.59998 94.3199 4.59998C92.0799 4.59998 90.0799 5.15998 88.3199 6.23997L89.1599 8.79998ZM93.5599 20.4C91.5199 20.4 90.3199 19.32 90.3199 17.56C90.3199 15.64 92.0399 14.6 94.1599 14.6C95.7199 14.6 97.0799 15 98.1999 15.8V18.08C96.8799 19.64 95.3599 20.4 93.5599 20.4Z" fill="#434047"/>
<path d="M102.518 25.6C102.518 29.4 106.198 31.32 111.678 31.32C117.158 31.32 120.838 29.32 120.838 25.6C120.838 21.8 117.158 19.8 111.678 19.8C111.398 19.8 110.798 19.84 110.598 19.84C110.358 19.52 110.238 19.12 110.238 18.64C110.238 18.24 110.318 17.92 110.438 17.64C110.718 17.68 111.118 17.68 111.638 17.68C113.838 17.68 115.598 17.08 116.958 15.84C118.318 14.6 118.998 13.04 118.998 11.2C118.998 10.04 118.718 8.99997 118.158 8.07997L121.558 7.23997L121.478 4.63998L116.198 5.91998C114.878 5.03997 113.358 4.59998 111.638 4.59998C109.438 4.59998 107.638 5.23997 106.278 6.51997C104.958 7.75998 104.278 9.31998 104.278 11.2C104.278 13.88 105.758 16.12 108.318 17.12C107.678 17.92 107.678 19.36 108.278 20.12C104.718 20.88 102.518 22.76 102.518 25.6ZM117.838 25.6C117.838 27.64 115.478 28.72 111.678 28.72C107.878 28.72 105.518 27.56 105.518 25.6C105.518 23.64 107.838 22.4 111.678 22.4C115.518 22.4 117.838 23.64 117.838 25.6ZM107.278 11.2C107.278 8.91997 109.038 7.19998 111.638 7.19998C112.958 7.19998 113.998 7.59998 114.798 8.35997C115.598 9.11998 115.998 10.04 115.998 11.2C115.998 12.36 115.598 13.28 114.758 14C113.958 14.72 112.918 15.08 111.638 15.08C109.038 15.08 107.278 13.44 107.278 11.2Z" fill="#434047"/>
<path d="M137.364 18.52C136.044 19.76 134.204 20.4 131.844 20.4C128.284 20.4 125.844 18.36 125.564 15H139.404C139.524 14.4 139.604 13.68 139.604 12.84C139.604 10.4 138.804 8.43998 137.204 6.91998C135.604 5.35998 133.604 4.59998 131.244 4.59998C128.364 4.59998 126.084 5.47998 124.444 7.27998C122.804 9.03998 121.964 11.28 121.964 14C121.964 16.84 122.844 19.12 124.604 20.84C126.364 22.56 128.684 23.4 131.604 23.4C134.364 23.4 136.644 22.6 138.364 21.04L137.364 18.52ZM131.084 7.59998C134.164 7.59998 136.124 9.39998 136.284 12.4H125.364C125.724 9.55998 127.884 7.59998 131.084 7.59998Z" fill="#434047"/>
<path d="M145.545 23V9.99998C146.905 8.43998 148.585 7.67998 150.625 7.67998C154.025 7.67998 155.705 9.51998 155.705 13.2V23H158.905V12.6C158.905 7.31997 156.425 4.67997 151.425 4.67997C149.185 4.67997 146.865 5.75998 145.545 7.19998V4.99998H142.345V23H145.545Z" fill="#434047"/>
<path d="M176.538 18.08C175.178 19.64 173.458 20.4 171.378 20.4C169.538 20.4 167.978 19.8 166.738 18.64C165.498 17.48 164.898 15.92 164.898 14C164.898 12.16 165.498 10.64 166.698 9.43997C167.938 8.19998 169.378 7.59998 171.058 7.59998C173.138 7.59998 174.858 8.23998 176.218 9.47998L177.698 6.95998C176.138 5.39998 173.778 4.59998 170.618 4.59998C168.018 4.59998 165.818 5.51998 164.098 7.31998C162.378 9.11998 161.498 11.36 161.498 14C161.498 16.84 162.378 19.12 164.138 20.84C165.938 22.56 168.258 23.4 171.138 23.4C173.978 23.4 176.578 22.32 178.058 20.4L176.538 18.08Z" fill="#434047"/>
<path d="M192.998 4.99998L188.838 16.4C188.518 17.36 188.238 18.28 187.998 19.16C187.398 17.6 187.038 16.68 186.918 16.44L181.638 4.99998H177.798L186.438 23L186.038 23.96C184.798 26.84 183.678 28.04 182.198 28.04C181.718 28.04 181.038 27.84 180.198 27.44L179.158 29.88C180.278 30.64 181.398 31 182.558 31C183.878 31 185.038 30.44 186.038 29.32C187.038 28.24 188.158 26.12 189.438 23L196.638 4.99998H192.998Z" fill="#434047"/>
</svg>
