<svg width="74" height="74" viewBox="0 0 74 74" fill="none" xmlns="http://www.w3.org/2000/svg">
<path d="M37 74C57.4345 74 74 57.4345 74 37C74 16.5655 57.4345 0 37 0C16.5655 0 0 16.5655 0 37C0 57.4345 16.5655 74 37 74Z" fill="white"/>
<path d="M36.5 60.0349L17 37.814M36.5 60.0349L56 37.814M36.5 60.0349L27.8333 37.814M36.5 60.0349L45.1667 37.814M17 37.814L25.6667 23M17 37.814H27.8333M25.6667 23L27.8333 37.814M25.6667 23H36.5M47.3333 23L56 37.814M47.3333 23L45.1667 37.814M47.3333 23H36.5M56 37.814H45.1667M27.8333 37.814H45.1667M27.8333 37.814L36.5 23M45.1667 37.814L36.5 23" stroke="#434047" stroke-width="2"/>
</svg>
