<?xml version="1.0" encoding="utf-8"?>
<!-- Generator: Adobe Illustrator 24.0.0, SVG Export Plug-In . SVG Version: 6.00 Build 0)  -->
<svg version="1.1" id="Layer_1" xmlns="http://www.w3.org/2000/svg" xmlns:xlink="http://www.w3.org/1999/xlink" x="0px" y="0px"
	 viewBox="0 0 148 148" style="enable-background:new 0 0 148 148;" xml:space="preserve">
<style type="text/css">
	.st0{fill:#19BE2A;}
	.st1{fill:#434047;}
	.st2{fill:#FFFFFF;}
</style>
<g>
	<path class="st0" d="M74,148c40.9,0,74-33.1,74-74c0-40.9-33.1-74-74-74C33.1,0,0,33.1,0,74C0,114.9,33.1,148,74,148z"/>
	<path class="st1" d="M42.3,86.7h6.3v12.7H36V112h76V99.3H80.3V93h6.3V80.3H112V67.7H86.7V55h-6.3v-6.3H112V36H36v12.7h12.7v12.7
		h-6.3V86.7z"/>
	<path class="st2" d="M48.7,36h-6.3v12.7h6.3V36z"/>
	<path class="st2" d="M61.3,36H55v12.7h6.3V36z"/>
	<path class="st2" d="M74,36h-6.3v12.7H74V36z"/>
	<path class="st2" d="M86.7,36h-6.3v12.7h6.3V36z"/>
	<path class="st2" d="M99.3,36H93v12.7h6.3V36z"/>
	<path class="st2" d="M112,36h-6.3v12.7h6.3V36z"/>
	<path class="st2" d="M74,86.7V74h38v-6.3H80.3v-6.3H74V55H48.7v6.3h-6.3v6.3v12.7h6.3v6.3H74z M61.3,74v6.3H55V67.7h12.7V74H61.3z"
		/>
	<path class="st2" d="M48.7,99.3h-6.3V112h6.3V99.3z"/>
	<path class="st2" d="M61.3,99.3H55V112h6.3V99.3z"/>
	<path class="st2" d="M74,99.3h-6.3V112H74V99.3z"/>
	<path class="st2" d="M86.7,99.3h-6.3V112h6.3V99.3z"/>
	<path class="st2" d="M99.3,99.3H93V112h6.3V99.3z"/>
	<path class="st2" d="M112,99.3h-6.3V112h6.3V99.3z"/>
</g>
</svg>
