<?xml version="1.0" encoding="utf-8"?>
<!-- Generator: Adobe Illustrator 24.0.0, SVG Export Plug-In . SVG Version: 6.00 Build 0)  -->
<svg version="1.1" id="Layer_1" xmlns="http://www.w3.org/2000/svg" xmlns:xlink="http://www.w3.org/1999/xlink" x="0px" y="0px"
	 viewBox="0 0 202 74" style="enable-background:new 0 0 202 74;" xml:space="preserve">
<style type="text/css">
	.st0{fill:#19BE2A;}
	.st1{fill:#434047;}
	.st2{fill:#FFFFFF;}
</style>
<path class="st0" d="M107.1,26.5c-1.3,1.2-3.2,1.9-5.5,1.9c-3.6,0-6-2-6.3-5.4h13.8c0.1-0.6,0.2-1.3,0.2-2.2c0-2.4-0.8-4.4-2.4-5.9
	c-1.6-1.6-3.6-2.3-6-2.3c-2.9,0-5.2,0.9-6.8,2.7c-1.6,1.8-2.5,4-2.5,6.7c0,2.8,0.9,5.1,2.6,6.8c1.8,1.7,4.1,2.6,7,2.6
	c2.8,0,5-0.8,6.8-2.4L107.1,26.5z M100.8,15.6c3.1,0,5,1.8,5.2,4.8H95.1C95.4,17.6,97.6,15.6,100.8,15.6z"/>
<path class="st0" d="M115.3,31V18c1.4-1.6,3-2.3,5.1-2.3c3.4,0,5.1,1.8,5.1,5.5V31h3.2V20.6c0-5.3-2.5-7.9-7.5-7.9
	c-2.2,0-4.6,1.1-5.9,2.5V13h-3.2v18H115.3z"/>
<path class="st0" d="M132,24.2c0,4.8,1.7,7.2,5.6,7.2c1.8,0,3.4-0.5,4.6-1.5l-1-2.5c-0.9,0.7-1.8,1-2.8,1c-2.1,0-3.2-1.5-3.2-4.5V16
	h6.6v-3h-6.6V8H132V24.2z"/>
<path class="st0" d="M158.4,26.5c-1.3,1.2-3.2,1.9-5.5,1.9c-3.6,0-6-2-6.3-5.4h13.8c0.1-0.6,0.2-1.3,0.2-2.2c0-2.4-0.8-4.4-2.4-5.9
	c-1.6-1.6-3.6-2.3-6-2.3c-2.9,0-5.2,0.9-6.8,2.7c-1.6,1.8-2.5,4-2.5,6.7c0,2.8,0.9,5.1,2.6,6.8c1.8,1.7,4.1,2.6,7,2.6
	c2.8,0,5-0.8,6.8-2.4L158.4,26.5z M152.1,15.6c3.1,0,5,1.8,5.2,4.8h-10.9C146.8,17.6,148.9,15.6,152.1,15.6z"/>
<path class="st0" d="M166.6,31V18.2c0.9-1.7,2.1-2.6,3.8-2.6c0.8,0,1.7,0.2,2.4,0.7l1.1-3c-0.6-0.4-1.6-0.7-2.8-0.7
	c-1.9,0-3.4,0.8-4.5,2.4V13h-3.2v18H166.6z"/>
<path class="st1" d="M93.8,46.8c1.7-0.9,3.3-1.3,5-1.3c3.3,0,4.1,1.8,4.1,5.7c-1.1-0.8-2.6-1.2-4.5-1.2c-4,0-6.8,2.2-6.8,5.7
	c0,3.4,2.2,5.6,5.5,5.6c2.4,0,4.4-0.9,5.8-2.6V61h3V50c0-4.9-2-7.4-6.9-7.4c-2.2,0-4.2,0.6-6,1.6L93.8,46.8z M98.2,58.4
	c-2,0-3.2-1.1-3.2-2.8c0-1.9,1.7-3,3.8-3c1.6,0,2.9,0.4,4,1.2v2.3C101.6,57.6,100,58.4,98.2,58.4z"/>
<path class="st1" d="M107.2,63.6c0,3.8,3.7,5.7,9.2,5.7c5.5,0,9.2-2,9.2-5.7c0-3.8-3.7-5.8-9.2-5.8c-0.3,0-0.9,0-1.1,0
	c-0.2-0.3-0.4-0.7-0.4-1.2c0-0.4,0.1-0.7,0.2-1c0.3,0,0.7,0,1.2,0c2.2,0,4-0.6,5.3-1.8s2-2.8,2-4.6c0-1.2-0.3-2.2-0.8-3.1l3.4-0.8
	l-0.1-2.6l-5.3,1.3c-1.3-0.9-2.8-1.3-4.6-1.3c-2.2,0-4,0.6-5.4,1.9c-1.3,1.2-2,2.8-2,4.7c0,2.7,1.5,4.9,4,5.9c-0.6,0.8-0.6,2.2,0,3
	C109.4,58.9,107.2,60.8,107.2,63.6z M122.5,63.6c0,2-2.4,3.1-6.2,3.1c-3.8,0-6.2-1.2-6.2-3.1s2.3-3.2,6.2-3.2
	C120.2,60.4,122.5,61.6,122.5,63.6z M112,49.2c0-2.3,1.8-4,4.4-4c1.3,0,2.4,0.4,3.2,1.2c0.8,0.8,1.2,1.7,1.2,2.8s-0.4,2.1-1.2,2.8
	c-0.8,0.7-1.8,1.1-3.1,1.1C113.7,53.1,112,51.4,112,49.2z"/>
<path class="st1" d="M142,56.5c-1.3,1.2-3.2,1.9-5.5,1.9c-3.6,0-6-2-6.3-5.4h13.8c0.1-0.6,0.2-1.3,0.2-2.2c0-2.4-0.8-4.4-2.4-5.9
	c-1.6-1.6-3.6-2.3-6-2.3c-2.9,0-5.2,0.9-6.8,2.7c-1.6,1.8-2.5,4-2.5,6.7c0,2.8,0.9,5.1,2.6,6.8c1.8,1.7,4.1,2.6,7,2.6
	c2.8,0,5-0.8,6.8-2.4L142,56.5z M135.8,45.6c3.1,0,5,1.8,5.2,4.8H130C130.4,47.6,132.6,45.6,135.8,45.6z"/>
<path class="st1" d="M150.2,61V48c1.4-1.6,3-2.3,5.1-2.3c3.4,0,5.1,1.8,5.1,5.5V61h3.2V50.6c0-5.3-2.5-7.9-7.5-7.9
	c-2.2,0-4.6,1.1-5.9,2.5V43H147v18H150.2z"/>
<path class="st1" d="M181.2,56.1c-1.4,1.6-3.1,2.3-5.2,2.3c-1.8,0-3.4-0.6-4.6-1.8s-1.8-2.7-1.8-4.6c0-1.8,0.6-3.4,1.8-4.6
	c1.2-1.2,2.7-1.8,4.4-1.8c2.1,0,3.8,0.6,5.2,1.9l1.5-2.5c-1.6-1.6-3.9-2.4-7.1-2.4c-2.6,0-4.8,0.9-6.5,2.7s-2.6,4-2.6,6.7
	c0,2.8,0.9,5.1,2.6,6.8c1.8,1.7,4.1,2.6,7,2.6c2.8,0,5.4-1.1,6.9-3L181.2,56.1z"/>
<path class="st1" d="M197.7,43l-4.2,11.4c-0.3,1-0.6,1.9-0.8,2.8c-0.6-1.6-1-2.5-1.1-2.7L186.3,43h-3.8l8.6,18l-0.4,1
	c-1.2,2.9-2.4,4.1-3.8,4.1c-0.5,0-1.2-0.2-2-0.6l-1,2.4c1.1,0.8,2.2,1.1,3.4,1.1c1.3,0,2.5-0.6,3.5-1.7c1-1.1,2.1-3.2,3.4-6.3
	l7.2-18H197.7z"/>
<g>
	<path class="st0" d="M37,74c20.4,0,37-16.6,37-37C74,16.6,57.4,0,37,0C16.6,0,0,16.6,0,37C0,57.4,16.6,74,37,74z"/>
	<path class="st1" d="M21.2,43.3h3.2v6.3H18V56h38v-6.3H40.2v-3.2h3.2v-6.3H56v-6.3H43.3v-6.3h-3.2v-3.2H56V18H18v6.3h6.3v6.3h-3.2
		V43.3z"/>
	<path class="st2" d="M24.3,18h-3.2v6.3h3.2V18z"/>
	<path class="st2" d="M30.7,18h-3.2v6.3h3.2V18z"/>
	<path class="st2" d="M37,18h-3.2v6.3H37V18z"/>
	<path class="st2" d="M43.3,18h-3.2v6.3h3.2V18z"/>
	<path class="st2" d="M49.7,18h-3.2v6.3h3.2V18z"/>
	<path class="st2" d="M56,18h-3.2v6.3H56V18z"/>
	<path class="st2" d="M37,43.3V37h19v-3.2H40.2v-3.2H37v-3.2H24.3v3.2h-3.2v3.2v6.3h3.2v3.2H37z M30.7,37v3.2h-3.2v-6.3h6.3V37H30.7
		z"/>
	<path class="st2" d="M24.3,49.7h-3.2V56h3.2V49.7z"/>
	<path class="st2" d="M30.7,49.7h-3.2V56h3.2V49.7z"/>
	<path class="st2" d="M37,49.7h-3.2V56H37V49.7z"/>
	<path class="st2" d="M43.3,49.7h-3.2V56h3.2V49.7z"/>
	<path class="st2" d="M49.7,49.7h-3.2V56h3.2V49.7z"/>
	<path class="st2" d="M56,49.7h-3.2V56H56V49.7z"/>
</g>
</svg>
