<svg width="74" height="74" viewBox="0 0 74 74" fill="none" xmlns="http://www.w3.org/2000/svg">
<path d="M37 74C57.4345 74 74 57.4345 74 37C74 16.5655 57.4345 0 37 0C16.5655 0 0 16.5655 0 37C0 57.4345 16.5655 74 37 74Z" fill="#434047"/>
<path d="M21.1655 43.3289H24.3311V49.6645H18V55.9932H55.9864V49.6645H40.1725V46.5001H43.338V40.1645H55.9864V33.8357H43.338V27.5001H40.1725V24.3357H55.9864V18.0001H18V24.3357H24.3311V30.6645H21.1655V43.3289Z" fill="#19BE2A"/>
<path d="M24.3355 18.0001H21.1699V24.3357H24.3355V18.0001Z" fill="white"/>
<path d="M30.6675 18H27.502V24.3356H30.6675V18Z" fill="white"/>
<path d="M37.0015 18H33.8359V24.3356H37.0015V18Z" fill="white"/>
<path d="M43.3413 18H40.1758V24.3356H43.3413V18Z" fill="white"/>
<path d="M49.6694 18H46.5039V24.3356H49.6694V18Z" fill="white"/>
<path d="M56.0015 18H52.8359V24.3356H56.0015V18Z" fill="white"/>
<path d="M37.0025 43.3288V37H55.9889V33.8356H40.1749V30.6713H37.0094V27.5069H24.3335V30.6713H21.168V33.8356V40.1644H24.3335V43.3288H37.0025ZM30.6715 37V40.1644H27.5059V33.8356H33.8439V37H30.6715Z" fill="white"/>
<path d="M24.3335 49.6644H21.168V55.9931H24.3335V49.6644Z" fill="white"/>
<path d="M30.6675 49.6644H27.502V55.9931H30.6675V49.6644Z" fill="white"/>
<path d="M37.0015 49.6644H33.8359V55.9931H37.0015V49.6644Z" fill="white"/>
<path d="M43.3413 49.6644H40.1758V55.9931H43.3413V49.6644Z" fill="white"/>
<path d="M49.6694 49.6644H46.5039V55.9931H49.6694V49.6644Z" fill="white"/>
<path d="M56.0015 49.6644H52.8359V56H56.0015V49.6644Z" fill="white"/>
</svg>
