<svg width="202" height="74" viewBox="0 0 202 74" fill="none" xmlns="http://www.w3.org/2000/svg">
<path d="M107.08 26.52C105.76 27.76 103.92 28.4 101.56 28.4C97.9997 28.4 95.5597 26.36 95.2797 23H109.12C109.24 22.4 109.32 21.68 109.32 20.84C109.32 18.4 108.52 16.44 106.92 14.92C105.32 13.36 103.32 12.6 100.96 12.6C98.0797 12.6 95.7997 13.48 94.1597 15.28C92.5197 17.04 91.6797 19.28 91.6797 22C91.6797 24.84 92.5597 27.12 94.3197 28.84C96.0797 30.56 98.3997 31.4 101.32 31.4C104.08 31.4 106.36 30.6 108.08 29.04L107.08 26.52ZM100.8 15.6C103.88 15.6 105.84 17.4 106 20.4H95.0797C95.4397 17.56 97.5997 15.6 100.8 15.6Z" fill="#19BE2A"/>
<path d="M115.261 31V18C116.621 16.44 118.301 15.68 120.341 15.68C123.741 15.68 125.421 17.52 125.421 21.2V31H128.621V20.6C128.621 15.32 126.141 12.68 121.141 12.68C118.901 12.68 116.581 13.76 115.261 15.2V13H112.061V31H115.261Z" fill="#19BE2A"/>
<path d="M132.014 24.16C132.014 28.92 133.694 31.32 137.654 31.32C139.494 31.32 141.014 30.8 142.254 29.8L141.254 27.32C140.374 28 139.414 28.32 138.414 28.32C136.294 28.32 135.214 26.84 135.214 23.84V16H141.814V13H135.214V8H132.014V24.16Z" fill="#19BE2A"/>
<path d="M158.412 26.52C157.092 27.76 155.253 28.4 152.893 28.4C149.333 28.4 146.892 26.36 146.612 23H160.452C160.573 22.4 160.653 21.68 160.653 20.84C160.653 18.4 159.853 16.44 158.253 14.92C156.653 13.36 154.653 12.6 152.292 12.6C149.412 12.6 147.132 13.48 145.493 15.28C143.853 17.04 143.013 19.28 143.013 22C143.013 24.84 143.893 27.12 145.653 28.84C147.412 30.56 149.732 31.4 152.653 31.4C155.412 31.4 157.692 30.6 159.412 29.04L158.412 26.52ZM152.132 15.6C155.212 15.6 157.173 17.4 157.333 20.4H146.413C146.773 17.56 148.932 15.6 152.132 15.6Z" fill="#19BE2A"/>
<path d="M166.594 31V18.24C167.474 16.52 168.714 15.68 170.354 15.68C171.194 15.68 172.034 15.92 172.794 16.36L173.914 13.36C173.314 12.92 172.354 12.68 171.114 12.68C169.194 12.68 167.674 13.48 166.594 15.12V13H163.394V31H166.594Z" fill="#19BE2A"/>
<path d="M93.8396 46.8C95.5196 45.92 97.1596 45.48 98.7996 45.48C102.12 45.48 102.88 47.32 102.88 51.16C101.8 50.4 100.32 50 98.3996 50C94.3996 50 91.5996 52.16 91.5996 55.72C91.5996 59.12 93.7996 61.28 97.1196 61.28C99.5596 61.28 101.48 60.4 102.88 58.68V61H105.92V49.96C105.92 45.04 103.96 42.6 98.9996 42.6C96.7596 42.6 94.7596 43.16 92.9996 44.24L93.8396 46.8ZM98.2396 58.4C96.1996 58.4 94.9996 57.32 94.9996 55.56C94.9996 53.64 96.7196 52.6 98.8396 52.6C100.4 52.6 101.76 53 102.88 53.8V56.08C101.56 57.64 100.04 58.4 98.2396 58.4Z" fill="#434047"/>
<path d="M107.198 63.6C107.198 67.4 110.878 69.32 116.358 69.32C121.838 69.32 125.518 67.32 125.518 63.6C125.518 59.8 121.838 57.8 116.358 57.8C116.078 57.8 115.478 57.84 115.278 57.84C115.038 57.52 114.918 57.12 114.918 56.64C114.918 56.24 114.998 55.92 115.118 55.64C115.398 55.68 115.798 55.68 116.318 55.68C118.518 55.68 120.278 55.08 121.638 53.84C122.998 52.6 123.678 51.04 123.678 49.2C123.678 48.04 123.398 47 122.838 46.08L126.238 45.24L126.158 42.64L120.878 43.92C119.558 43.04 118.038 42.6 116.318 42.6C114.118 42.6 112.318 43.24 110.958 44.52C109.638 45.76 108.958 47.32 108.958 49.2C108.958 51.88 110.438 54.12 112.998 55.12C112.358 55.92 112.358 57.36 112.958 58.12C109.398 58.88 107.198 60.76 107.198 63.6ZM122.518 63.6C122.518 65.64 120.158 66.72 116.358 66.72C112.558 66.72 110.198 65.56 110.198 63.6C110.198 61.64 112.518 60.4 116.358 60.4C120.198 60.4 122.518 61.64 122.518 63.6ZM111.958 49.2C111.958 46.92 113.718 45.2 116.318 45.2C117.638 45.2 118.678 45.6 119.478 46.36C120.278 47.12 120.678 48.04 120.678 49.2C120.678 50.36 120.278 51.28 119.438 52C118.638 52.72 117.598 53.08 116.318 53.08C113.718 53.08 111.958 51.44 111.958 49.2Z" fill="#434047"/>
<path d="M142.044 56.52C140.724 57.76 138.884 58.4 136.524 58.4C132.964 58.4 130.524 56.36 130.244 53H144.084C144.204 52.4 144.284 51.68 144.284 50.84C144.284 48.4 143.484 46.44 141.884 44.92C140.284 43.36 138.284 42.6 135.924 42.6C133.044 42.6 130.764 43.48 129.124 45.28C127.484 47.04 126.644 49.28 126.644 52C126.644 54.84 127.524 57.12 129.284 58.84C131.044 60.56 133.364 61.4 136.284 61.4C139.044 61.4 141.324 60.6 143.044 59.04L142.044 56.52ZM135.764 45.6C138.844 45.6 140.804 47.4 140.964 50.4H130.044C130.404 47.56 132.564 45.6 135.764 45.6Z" fill="#434047"/>
<path d="M150.225 61V48C151.585 46.44 153.265 45.68 155.305 45.68C158.705 45.68 160.385 47.52 160.385 51.2V61H163.585V50.6C163.585 45.32 161.105 42.68 156.105 42.68C153.865 42.68 151.545 43.76 150.225 45.2V43H147.025V61H150.225Z" fill="#434047"/>
<path d="M181.218 56.08C179.858 57.64 178.138 58.4 176.058 58.4C174.218 58.4 172.658 57.8 171.418 56.64C170.178 55.48 169.578 53.92 169.578 52C169.578 50.16 170.178 48.64 171.378 47.44C172.618 46.2 174.058 45.6 175.738 45.6C177.818 45.6 179.538 46.24 180.898 47.48L182.378 44.96C180.818 43.4 178.458 42.6 175.298 42.6C172.698 42.6 170.498 43.52 168.778 45.32C167.058 47.12 166.178 49.36 166.178 52C166.178 54.84 167.058 57.12 168.818 58.84C170.618 60.56 172.938 61.4 175.818 61.4C178.658 61.4 181.258 60.32 182.738 58.4L181.218 56.08Z" fill="#434047"/>
<path d="M197.678 43L193.518 54.4C193.198 55.36 192.918 56.28 192.678 57.16C192.078 55.6 191.718 54.68 191.598 54.44L186.318 43H182.478L191.118 61L190.718 61.96C189.478 64.84 188.358 66.04 186.878 66.04C186.398 66.04 185.718 65.84 184.878 65.44L183.838 67.88C184.958 68.64 186.078 69 187.238 69C188.558 69 189.718 68.44 190.718 67.32C191.718 66.24 192.838 64.12 194.118 61L201.318 43H197.678Z" fill="#434047"/>
<path d="M37 74C57.4345 74 74 57.4345 74 37C74 16.5655 57.4345 0 37 0C16.5655 0 0 16.5655 0 37C0 57.4345 16.5655 74 37 74Z" fill="#434047"/>
<path d="M21.1655 43.3289H24.3311V49.6645H18V55.9932H55.9864V49.6645H40.1725V46.5001H43.338V40.1645H55.9864V33.8357H43.338V27.5001H40.1725V24.3357H55.9864V18.0001H18V24.3357H24.3311V30.6645H21.1655V43.3289Z" fill="#19BE2A"/>
<path d="M24.3355 18H21.1699V24.3357H24.3355V18Z" fill="white"/>
<path d="M30.6675 18H27.502V24.3356H30.6675V18Z" fill="white"/>
<path d="M37.0015 18H33.8359V24.3356H37.0015V18Z" fill="white"/>
<path d="M43.3413 18H40.1758V24.3356H43.3413V18Z" fill="white"/>
<path d="M49.6694 18H46.5039V24.3356H49.6694V18Z" fill="white"/>
<path d="M56.0015 18H52.8359V24.3356H56.0015V18Z" fill="white"/>
<path d="M37.0025 43.3288V37H55.9889V33.8356H40.1749V30.6713H37.0094V27.5069H24.3335V30.6713H21.168V33.8356V40.1644H24.3335V43.3288H37.0025ZM30.6715 37V40.1644H27.5059V33.8356H33.8439V37H30.6715Z" fill="white"/>
<path d="M24.3335 49.6644H21.168V55.9931H24.3335V49.6644Z" fill="white"/>
<path d="M31.1655 50H28V56.3287H31.1655V50Z" fill="white"/>
<path d="M37.0015 49.6644H33.8359V55.9931H37.0015V49.6644Z" fill="white"/>
<path d="M43.3413 49.6644H40.1758V55.9931H43.3413V49.6644Z" fill="white"/>
<path d="M49.6694 49.6644H46.5039V55.9931H49.6694V49.6644Z" fill="white"/>
<path d="M56.0015 49.6644H52.8359V56H56.0015V49.6644Z" fill="white"/>
</svg>
