<svg width="202" height="74" viewBox="0 0 202 74" fill="none" xmlns="http://www.w3.org/2000/svg">
<path d="M107.08 26.52C105.76 27.76 103.92 28.4 101.56 28.4C97.9997 28.4 95.5597 26.36 95.2797 23H109.12C109.24 22.4 109.32 21.68 109.32 20.84C109.32 18.4 108.52 16.44 106.92 14.92C105.32 13.36 103.32 12.6 100.96 12.6C98.0797 12.6 95.7997 13.48 94.1597 15.28C92.5197 17.04 91.6797 19.28 91.6797 22C91.6797 24.84 92.5597 27.12 94.3197 28.84C96.0797 30.56 98.3997 31.4 101.32 31.4C104.08 31.4 106.36 30.6 108.08 29.04L107.08 26.52ZM100.8 15.6C103.88 15.6 105.84 17.4 106 20.4H95.0797C95.4397 17.56 97.5997 15.6 100.8 15.6Z" fill="#19BE2A"/>
<path d="M115.261 31V18C116.621 16.44 118.301 15.68 120.341 15.68C123.741 15.68 125.421 17.52 125.421 21.2V31H128.621V20.6C128.621 15.32 126.141 12.68 121.141 12.68C118.901 12.68 116.581 13.76 115.261 15.2V13H112.061V31H115.261Z" fill="#19BE2A"/>
<path d="M132.014 24.16C132.014 28.92 133.694 31.32 137.654 31.32C139.494 31.32 141.014 30.8 142.254 29.8L141.254 27.32C140.374 28 139.414 28.32 138.414 28.32C136.294 28.32 135.214 26.84 135.214 23.84V16H141.814V13H135.214V8H132.014V24.16Z" fill="#19BE2A"/>
<path d="M158.412 26.52C157.092 27.76 155.253 28.4 152.893 28.4C149.333 28.4 146.892 26.36 146.612 23H160.452C160.573 22.4 160.653 21.68 160.653 20.84C160.653 18.4 159.853 16.44 158.253 14.92C156.653 13.36 154.653 12.6 152.292 12.6C149.412 12.6 147.132 13.48 145.493 15.28C143.853 17.04 143.013 19.28 143.013 22C143.013 24.84 143.893 27.12 145.653 28.84C147.412 30.56 149.732 31.4 152.653 31.4C155.412 31.4 157.692 30.6 159.412 29.04L158.412 26.52ZM152.132 15.6C155.212 15.6 157.173 17.4 157.333 20.4H146.413C146.773 17.56 148.932 15.6 152.132 15.6Z" fill="#19BE2A"/>
<path d="M166.594 31V18.24C167.474 16.52 168.714 15.68 170.354 15.68C171.194 15.68 172.034 15.92 172.794 16.36L173.914 13.36C173.314 12.92 172.354 12.68 171.114 12.68C169.194 12.68 167.674 13.48 166.594 15.12V13H163.394V31H166.594Z" fill="#19BE2A"/>
<path d="M93.8396 46.8001C95.5196 45.9201 97.1596 45.4801 98.7996 45.4801C102.12 45.4801 102.88 47.3201 102.88 51.1601C101.8 50.4001 100.32 50.0001 98.3996 50.0001C94.3996 50.0001 91.5996 52.1601 91.5996 55.7201C91.5996 59.1201 93.7996 61.2801 97.1196 61.2801C99.5596 61.2801 101.48 60.4001 102.88 58.6801V61.0001H105.92V49.9601C105.92 45.0401 103.96 42.6001 98.9996 42.6001C96.7596 42.6001 94.7596 43.1601 92.9996 44.2401L93.8396 46.8001ZM98.2396 58.4001C96.1996 58.4001 94.9996 57.3201 94.9996 55.5601C94.9996 53.6401 96.7196 52.6001 98.8396 52.6001C100.4 52.6001 101.76 53.0001 102.88 53.8001V56.0801C101.56 57.6401 100.04 58.4001 98.2396 58.4001Z" fill="#434047"/>
<path d="M107.198 63.6001C107.198 67.4001 110.878 69.3201 116.358 69.3201C121.838 69.3201 125.518 67.3201 125.518 63.6001C125.518 59.8001 121.838 57.8001 116.358 57.8001C116.078 57.8001 115.478 57.8401 115.278 57.8401C115.038 57.5201 114.918 57.1201 114.918 56.6401C114.918 56.2401 114.998 55.9201 115.118 55.6401C115.398 55.6801 115.798 55.6801 116.318 55.6801C118.518 55.6801 120.278 55.0801 121.638 53.8401C122.998 52.6001 123.678 51.0401 123.678 49.2001C123.678 48.0401 123.398 47.0001 122.838 46.0801L126.238 45.2401L126.158 42.6401L120.878 43.9201C119.558 43.0401 118.038 42.6001 116.318 42.6001C114.118 42.6001 112.318 43.2401 110.958 44.5201C109.638 45.7601 108.958 47.3201 108.958 49.2001C108.958 51.8801 110.438 54.1201 112.998 55.1201C112.358 55.9201 112.358 57.3601 112.958 58.1201C109.398 58.8801 107.198 60.7601 107.198 63.6001ZM122.518 63.6001C122.518 65.6401 120.158 66.7201 116.358 66.7201C112.558 66.7201 110.198 65.5601 110.198 63.6001C110.198 61.6401 112.518 60.4001 116.358 60.4001C120.198 60.4001 122.518 61.6401 122.518 63.6001ZM111.958 49.2001C111.958 46.9201 113.718 45.2001 116.318 45.2001C117.638 45.2001 118.678 45.6001 119.478 46.3601C120.278 47.1201 120.678 48.0401 120.678 49.2001C120.678 50.3601 120.278 51.2801 119.438 52.0001C118.638 52.7201 117.598 53.0801 116.318 53.0801C113.718 53.0801 111.958 51.4401 111.958 49.2001Z" fill="#434047"/>
<path d="M142.044 56.5201C140.724 57.7601 138.884 58.4001 136.524 58.4001C132.964 58.4001 130.524 56.3601 130.244 53.0001H144.084C144.204 52.4001 144.284 51.6801 144.284 50.8401C144.284 48.4001 143.484 46.4401 141.884 44.9201C140.284 43.3601 138.284 42.6001 135.924 42.6001C133.044 42.6001 130.764 43.4801 129.124 45.2801C127.484 47.0401 126.644 49.2801 126.644 52.0001C126.644 54.8401 127.524 57.1201 129.284 58.8401C131.044 60.5601 133.364 61.4001 136.284 61.4001C139.044 61.4001 141.324 60.6001 143.044 59.0401L142.044 56.5201ZM135.764 45.6001C138.844 45.6001 140.804 47.4001 140.964 50.4001H130.044C130.404 47.5601 132.564 45.6001 135.764 45.6001Z" fill="#434047"/>
<path d="M150.225 61.0001V48.0001C151.585 46.4401 153.265 45.6801 155.305 45.6801C158.705 45.6801 160.385 47.5201 160.385 51.2001V61.0001H163.585V50.6001C163.585 45.3201 161.105 42.6801 156.105 42.6801C153.865 42.6801 151.545 43.7601 150.225 45.2001V43.0001H147.025V61.0001H150.225Z" fill="#434047"/>
<path d="M181.218 56.0801C179.858 57.6401 178.138 58.4001 176.058 58.4001C174.218 58.4001 172.658 57.8001 171.418 56.6401C170.178 55.4801 169.578 53.9201 169.578 52.0001C169.578 50.1601 170.178 48.6401 171.378 47.4401C172.618 46.2001 174.058 45.6001 175.738 45.6001C177.818 45.6001 179.538 46.2401 180.898 47.4801L182.378 44.9601C180.818 43.4001 178.458 42.6001 175.298 42.6001C172.698 42.6001 170.498 43.5201 168.778 45.3201C167.058 47.1201 166.178 49.3601 166.178 52.0001C166.178 54.8401 167.058 57.1201 168.818 58.8401C170.618 60.5601 172.938 61.4001 175.818 61.4001C178.658 61.4001 181.258 60.3201 182.738 58.4001L181.218 56.0801Z" fill="#434047"/>
<path d="M197.678 43.0001L193.518 54.4001C193.198 55.3601 192.918 56.2801 192.678 57.1601C192.078 55.6001 191.718 54.6801 191.598 54.4401L186.318 43.0001H182.478L191.118 61.0001L190.718 61.9601C189.478 64.8401 188.358 66.0401 186.878 66.0401C186.398 66.0401 185.718 65.8401 184.878 65.4401L183.838 67.8801C184.958 68.6401 186.078 69.0001 187.238 69.0001C188.558 69.0001 189.718 68.4401 190.718 67.3201C191.718 66.2401 192.838 64.1201 194.118 61.0001L201.318 43.0001H197.678Z" fill="#434047"/>
<path d="M37 74C57.4345 74 74 57.4345 74 37C74 16.5655 57.4345 0 37 0C16.5655 0 0 16.5655 0 37C0 57.4345 16.5655 74 37 74Z" fill="#434047"/>
<path d="M21.1655 43.3287H24.3311V49.6644H18V55.9931H55.9864V49.6644H40.1725V46.5H43.338V40.1644H55.9864V33.8356H43.338V27.5H40.1725V24.3356H55.9864V18H18V24.3356H24.3311V30.6644H21.1655V43.3287Z" fill="#19BE2A"/>
<path d="M24.3355 18H21.1699V24.3356H24.3355V18Z" fill="white"/>
<path d="M30.6675 18H27.502V24.3356H30.6675V18Z" fill="white"/>
<path d="M37.0015 18H33.8359V24.3356H37.0015V18Z" fill="white"/>
<path d="M43.3413 18H40.1758V24.3356H43.3413V18Z" fill="white"/>
<path d="M49.6694 18H46.5039V24.3356H49.6694V18Z" fill="white"/>
<path d="M56.0015 18H52.8359V24.3356H56.0015V18Z" fill="white"/>
<path d="M37.0025 43.3287V36.9999H55.9889V33.8356H40.1749V30.6712H37.0094V27.5068H24.3335V30.6712H21.168V33.8356V40.1643H24.3335V43.3287H37.0025ZM30.6715 36.9999V40.1643H27.5059V33.8356H33.8439V36.9999H30.6715Z" fill="white"/>
<path d="M24.3335 49.6646H21.168V55.9933H24.3335V49.6646Z" fill="white"/>
<path d="M30.6675 49.6646H27.502V55.9933H30.6675V49.6646Z" fill="white"/>
<path d="M37.0015 49.6646H33.8359V55.9933H37.0015V49.6646Z" fill="white"/>
<path d="M43.3413 49.6646H40.1758V55.9933H43.3413V49.6646Z" fill="white"/>
<path d="M49.6694 49.6646H46.5039V55.9933H49.6694V49.6646Z" fill="white"/>
<path d="M56.0015 49.6646H52.8359V56.0002H56.0015V49.6646Z" fill="white"/>
</svg>
