<svg width="32" height="32" viewBox="0 0 32 32" xmlns="http://www.w3.org/2000/svg">
<rect width="32" height="32" rx="16" fill="white"/>
<path d="M25.7485 17.4001C24.2628 15.8572 20.2056 16.4858 19.2342 16.6001C17.8056 15.2286 16.8342 13.5715 16.4913 13.0001C17.0056 11.4572 17.3485 9.91434 17.4056 8.2572C17.4056 6.82862 16.8342 5.28577 15.2342 5.28577C14.6628 5.28577 14.1485 5.62862 13.8628 6.08577C13.1771 7.28577 13.4628 9.68577 14.5485 12.1429C13.9199 13.9143 13.3485 15.6286 11.7485 18.6572C10.0913 19.3429 6.60563 20.9429 6.31991 22.6572C6.20563 23.1715 6.37706 23.6858 6.77706 24.0858C7.17706 24.4286 7.69134 24.6001 8.20563 24.6001C10.3199 24.6001 12.3771 21.6858 13.8056 19.2286C15.0056 18.8286 16.8913 18.2572 18.7771 17.9143C21.0056 19.8572 22.9485 20.1429 23.9771 20.1429C25.3485 20.1429 25.8628 19.5715 26.0342 19.0572C26.3199 18.4858 26.1485 17.8572 25.7485 17.4001ZM24.3199 18.3715C24.2628 18.7715 23.7485 19.1715 22.8342 18.9429C21.7485 18.6572 20.7771 18.1429 19.9199 17.4572C20.6628 17.3429 22.3199 17.1715 23.5199 17.4001C23.9771 17.5143 24.4342 17.8001 24.3199 18.3715ZM14.7771 6.60005C14.8913 6.42862 15.0628 6.31434 15.2342 6.31434C15.7485 6.31434 15.8628 6.94291 15.8628 7.4572C15.8056 8.6572 15.5771 9.8572 15.1771 11.0001C14.3199 8.71434 14.4913 7.11434 14.7771 6.60005ZM14.6628 17.6858C15.1199 16.7715 15.7485 15.1715 15.9771 14.4858C16.4913 15.3429 17.3485 16.3715 17.8056 16.8286C17.8056 16.8858 16.0342 17.2286 14.6628 17.6858ZM11.2913 19.9715C9.97706 22.1429 8.60563 23.5143 7.86277 23.5143C7.74848 23.5143 7.6342 23.4572 7.51991 23.4001C7.34848 23.2858 7.29134 23.1143 7.34848 22.8858C7.51991 22.0858 9.00563 21.0001 11.2913 19.9715Z"/>
</svg>
