<svg width="32" height="32" viewBox="0 0 32 32"  xmlns="http://www.w3.org/2000/svg">
<path class="telegram__bg" d="M16 32C24.8366 32 32 24.8366 32 16C32 7.16344 24.8366 0 16 0C7.16344 0 0 7.16344 0 16C0 24.8366 7.16344 32 16 32Z" fill="#fff" />
<path class="telegram__icon" d="M5.61144 16.6816C7.49079 15.6545 9.58864 14.7974 11.5488 13.9358C14.9209 12.5246 18.3065 11.1379 21.7263 9.84695C22.3916 9.62699 23.5871 9.41191 23.7044 10.3901C23.6401 11.7748 23.3761 13.1514 23.195 14.528C22.7353 17.5553 22.2039 20.5722 21.6858 23.5895C21.5073 24.5946 20.2382 25.1148 19.4262 24.4716C17.4748 23.1639 15.5084 21.8689 13.5819 20.5308C12.9508 19.8947 13.536 18.981 14.0996 18.5267C15.7069 16.9553 17.4114 15.6202 18.9346 13.9675C19.3455 12.9831 18.1315 13.8127 17.731 14.0669C15.5307 15.5713 13.3842 17.1674 11.0644 18.4895C9.87938 19.1367 8.49827 18.5837 7.31384 18.2226C6.25186 17.7863 4.69564 17.3468 5.61133 16.6817L5.61144 16.6816Z" />
</svg>
